# xmcd
#
# Track frame offsets: 
#        150
#        15360
#        32725
#        52845
#        74205
#        89830
#        107245
#        123665
#        139530
#        157895
#        176485
#        191857
#
# Disc length: 2785 seconds
#
# Revision: 2
# Processed by: cddbd v1.5.2PL0 Copyright (c) Steve Scherf et al.
# Submitted via: ExactAudioCopyFreeDBPlugin 1.0
#
DISCID=a70adf0c
DTITLE=Trace Adkins - Chrome
DYEAR=2001
DGENRE=Country
TTITLE0=Chrome
TTITLE1=Help Me Understand
TTITLE2=Once Upon a Fool Ago
TTITLE3=I'm Tryin'
TTITLE4=Thankful Man
TTITLE5=I'm Payin' for It Now
TTITLE6=And There Was You
TTITLE7=Come Home
TTITLE8=Scream
TTITLE9=I'm Goin' Back
TTITLE10=Give Me You
TTITLE11=Love Me like There's No Tomorrow
EXTD=YEAR: 2001
EXTT0=
EXTT1=
EXTT2=
EXTT3=
EXTT4=
EXTT5=
EXTT6=
EXTT7=
EXTT8=
EXTT9=
EXTT10=
EXTT11=
PLAYORDER=
